<?xml version="1.0" standalone="no"?>
<!DOCTYPE svg PUBLIC "-//W3C//DTD SVG 20010904//EN"
 "http://www.w3.org/TR/2001/REC-SVG-20010904/DTD/svg10.dtd">
<svg version="1.0" xmlns="http://www.w3.org/2000/svg"
 width="596.000000pt" height="596.000000pt" viewBox="0 0 596.000000 596.000000"
 preserveAspectRatio="xMidYMid meet">
<metadata>
Created by potrace 1.14, written by Peter Selinger 2001-2017
</metadata>
<g transform="translate(0.000000,596.000000) scale(0.100000,-0.100000)"
fill="#000000" stroke="none">
<path d="M3974 5941 c-33 -20 -64 -57 -64 -77 0 -7 27 -13 68 -16 92 -7 115
-21 150 -87 79 -149 62 -296 -49 -428 -49 -58 -163 -153 -184 -153 -7 0 -46
13 -87 29 -262 105 -634 155 -975 132 -706 -48 -1269 -283 -1723 -718 -385
-369 -635 -790 -760 -1283 l-30 -115 0 -553 0 -553 25 -102 c90 -358 273 -727
511 -1027 85 -107 293 -314 404 -404 390 -312 858 -510 1350 -571 165 -20 499
-20 662 1 379 48 729 173 1082 389 235 143 485 358 632 545 209 266 387 596
488 905 150 460 171 962 61 1423 -32 132 -105 357 -162 497 -99 243 -288 527
-495 741 l-88 91 26 34 c110 148 178 389 154 546 -20 130 -86 228 -215 317
l-60 41 -119 5 -120 5 -18 75 c-32 130 -123 251 -229 304 -68 34 -186 37 -235
7z m257 -123 c23 -18 66 -64 95 -103 92 -120 96 -219 18 -457 -25 -77 -43
-142 -40 -145 20 -20 90 108 102 184 5 33 9 41 19 33 25 -21 38 -98 32 -193
-8 -116 -27 -189 -79 -296 -34 -71 -58 -103 -147 -194 -116 -119 -185 -169
-336 -244 -148 -74 -264 -117 -415 -153 -74 -17 -189 -46 -255 -65 -119 -33
-120 -33 -90 -8 56 46 110 76 245 138 131 60 461 251 586 340 142 101 243 221
283 335 31 89 2 78 -130 -45 -138 -129 -308 -228 -469 -274 -41 -12 -122 -37
-180 -56 -58 -18 -207 -54 -331 -79 -265 -53 -346 -80 -449 -150 -59 -40 -89
-70 -138 -137 -76 -106 -98 -154 -113 -250 -14 -92 -6 -246 15 -287 9 -17 16
-41 16 -52 0 -17 -4 -20 -22 -15 -78 24 -149 194 -134 321 8 70 78 292 111
353 15 27 60 83 99 124 68 71 80 79 266 170 201 98 233 110 553 197 306 83
480 150 578 221 26 19 88 73 138 121 75 72 98 101 126 160 46 99 65 177 65
273 0 97 -19 167 -60 223 -37 52 -20 56 41 10z m414 -400 c94 -42 102 -48 141
-106 102 -148 80 -347 -62 -584 -70 -115 -115 -162 -231 -238 -136 -90 -344
-160 -575 -194 -163 -24 -165 -21 -27 47 335 167 544 367 642 615 25 63 31 96
35 182 l4 105 -39 75 c-22 41 -50 93 -63 114 l-24 39 50 -6 c28 -3 95 -25 149
-49z m-1443 -388 c40 -6 118 -23 172 -39 l99 -28 -79 -26 c-43 -15 -146 -43
-229 -62 -82 -20 -172 -43 -200 -51 -128 -41 -324 -144 -433 -227 -135 -104
-238 -295 -266 -491 l-12 -81 -39 -7 c-22 -4 -142 -16 -268 -28 -125 -11 -264
-27 -310 -36 -162 -30 -293 -84 -369 -152 l-41 -37 6 -72 c6 -81 36 -156 91
-232 27 -36 50 -96 101 -261 99 -321 135 -426 223 -640 109 -265 106 -237 25
-245 -592 -56 -913 -163 -967 -320 l-13 -38 -16 49 c-29 88 -67 257 -83 374
-20 136 -22 423 -5 555 70 536 305 1036 650 1384 226 227 433 365 806 535 149
68 421 138 660 170 121 17 396 20 497 6z m718 -341 c-77 -67 -226 -156 -450
-267 -408 -204 -432 -218 -593 -368 -142 -131 -143 -133 -156 -193 -7 -33 -11
-76 -9 -95 5 -43 -3 -39 -27 13 -16 36 -17 49 -7 107 22 135 100 253 233 354
103 77 190 119 483 230 268 101 414 165 496 215 69 42 74 43 30 4z m717 -371
c89 -86 293 -336 293 -360 0 -7 18 -45 41 -83 155 -264 255 -535 306 -830 22
-128 25 -567 5 -690 -13 -77 -58 -271 -67 -285 -2 -3 -44 4 -94 16 -108 28
-396 49 -646 49 l-170 -1 -130 -42 c-71 -24 -157 -46 -191 -49 -57 -5 -66 -3
-120 27 -31 18 -89 41 -128 51 -39 9 -86 23 -104 30 -27 11 -34 11 -41 1 -6
-10 -15 -9 -42 6 -19 11 -43 22 -54 25 -11 3 -39 11 -62 17 -24 6 -43 14 -43
18 0 4 28 26 63 49 125 84 342 299 427 423 93 137 131 247 131 378 0 188 -81
311 -263 397 l-77 37 20 46 c25 57 27 148 5 190 -24 46 -79 95 -144 130 -103
54 -202 80 -542 139 l-35 6 35 14 c19 8 42 21 50 28 34 29 278 71 674 115 234
26 384 51 501 85 98 28 235 90 275 123 14 12 28 21 33 22 4 0 46 -37 94 -82z
m-2363 -415 c10 -61 7 -93 -7 -93 -8 0 -96 -5 -198 -10 -207 -12 -330 -30
-421 -61 -58 -21 -63 -21 -73 -5 -23 40 -33 49 -43 42 -19 -11 -14 -50 10 -75
55 -60 176 -88 443 -101 110 -5 301 -15 425 -21 519 -26 899 14 1010 108 67
55 24 87 -175 128 -140 29 -335 45 -335 28 0 -6 39 -13 88 -17 112 -9 294 -40
318 -54 18 -11 18 -11 -1 -12 -33 0 -417 29 -460 36 -87 12 -96 30 -44 89 l31
35 122 0 c66 0 153 -5 191 -10 168 -24 357 -89 424 -147 56 -47 65 -73 45
-124 -15 -35 -26 -44 -100 -80 -46 -22 -84 -46 -84 -53 0 -7 19 -20 41 -29
l42 -16 -7 -53 c-4 -29 -18 -101 -32 -160 -29 -126 -31 -156 -10 -138 18 14
41 82 57 168 10 51 18 68 47 93 34 30 38 31 110 27 l75 -4 45 -49 c69 -76 105
-161 110 -262 8 -140 -27 -228 -155 -395 -103 -134 -234 -253 -414 -375 -31
-21 -58 -53 -85 -99 -49 -85 -111 -148 -167 -169 -42 -16 -43 -17 -60 -88 -9
-39 -29 -96 -44 -127 -25 -49 -33 -56 -78 -71 -103 -35 -203 -50 -367 -56
-259 -9 -458 26 -556 97 -53 38 -72 76 -72 142 0 142 -45 323 -152 613 -39
104 -104 289 -145 410 -130 381 -186 518 -230 572 -62 73 -102 143 -96 161 4
10 22 36 40 58 29 36 46 46 116 68 108 34 188 51 322 71 112 16 376 42 451 44
40 1 42 0 48 -36z m-567 -1704 c40 -15 73 -49 73 -74 0 -21 -5 -22 -137 -29
-200 -10 -382 -48 -439 -91 -17 -13 -13 -14 43 -15 34 0 95 7 137 15 144 27
230 35 284 26 51 -8 70 -16 60 -26 -2 -3 -54 -10 -114 -16 -122 -12 -215 -31
-271 -55 -37 -16 -37 -16 -15 -27 16 -7 52 -7 125 1 56 7 128 12 159 12 56 0
116 -15 105 -27 -4 -3 -46 -11 -94 -19 -200 -29 -188 -56 30 -65 171 -7 157
-6 157 -19 0 -6 -43 -10 -110 -10 -135 0 -150 -20 -35 -47 l50 -12 -60 5 c-82
7 -351 61 -453 90 -90 26 -168 62 -219 102 -32 24 -43 55 -23 67 6 3 10 17 10
31 0 22 -2 23 -21 14 -26 -14 -49 -68 -49 -114 0 -27 7 -39 30 -56 55 -39 155
-78 270 -105 63 -15 155 -38 204 -51 92 -25 303 -59 571 -91 181 -21 667 -24
870 -5 171 16 359 48 460 77 l82 24 59 -24 c32 -13 83 -29 113 -36 45 -9 51
-13 37 -21 -114 -64 -486 -135 -776 -149 -449 -21 -469 -22 -512 -11 -24 7
-122 16 -218 22 -212 13 -304 25 -391 51 -36 10 -106 23 -155 28 -141 15 -542
147 -670 221 -69 39 -102 102 -85 160 19 64 75 102 214 148 67 23 158 50 202
61 165 42 439 64 502 40z m1720 -90 c59 -11 150 -34 202 -51 l93 -31 -37 -20
c-93 -47 -236 -96 -313 -107 -90 -13 -147 -42 -147 -75 0 -15 11 -21 56 -30
30 -6 61 -15 68 -19 22 -14 -7 -35 -57 -41 -38 -5 -175 -31 -266 -50 -13 -3
-4 11 27 43 48 49 86 120 87 162 1 52 5 53 174 45 141 -6 156 -6 156 9 0 38
-43 62 -119 69 -40 3 -76 9 -79 12 -5 4 38 104 45 105 1 0 51 -9 110 -21z
m1233 -58 c63 -6 180 -15 260 -21 136 -9 243 -29 261 -47 13 -14 -59 -213
-126 -348 -152 -308 -404 -624 -626 -788 -42 -31 -98 -74 -124 -97 -53 -46
-81 -50 -187 -26 -35 8 -92 17 -128 21 -105 12 -136 36 -110 86 19 35 64 49
162 50 109 0 170 9 175 26 9 26 -45 33 -304 43 -439 16 -460 20 -603 131 l-75
58 -180 16 c-220 21 -318 44 -360 85 -26 26 -28 32 -15 45 22 22 109 35 230
35 88 0 130 6 226 31 66 17 207 53 314 80 211 54 485 151 565 200 29 18 74 35
109 40 33 6 65 14 71 19 5 4 55 20 110 34 55 15 110 34 124 42 21 15 22 17 7
32 -15 15 -27 14 -151 -17 -141 -35 -199 -37 -221 -6 -11 14 -25 14 -145 -7
-148 -25 -394 -31 -439 -11 l-25 11 30 11 c53 19 60 27 58 63 -2 33 -1 34 55
50 31 9 102 32 157 52 94 34 108 36 221 36 124 0 129 1 369 66 95 25 98 25
315 5z m-3826 -335 c27 -21 81 -54 120 -74 l71 -37 -63 -3 c-60 -3 -63 -4 -56
-25 4 -12 17 -36 30 -53 13 -17 24 -36 24 -43 0 -8 43 -10 169 -5 202 8 234 2
342 -67 89 -57 96 -59 454 -110 164 -23 271 -33 420 -36 l200 -5 45 -43 c43
-42 133 -95 161 -95 7 0 10 -2 7 -5 -3 -3 -42 2 -88 11 -68 13 -194 16 -756
18 -638 3 -674 2 -674 -15 0 -30 49 -78 93 -90 29 -8 91 -9 202 -4 88 4 414 8
725 9 311 1 582 5 603 10 27 6 36 13 32 23 -4 12 3 14 42 9 27 -3 77 -8 113
-11 106 -10 113 -13 221 -91 127 -91 174 -107 303 -103 108 3 116 0 141 -69
45 -121 94 -153 264 -175 55 -8 103 -16 106 -18 8 -9 -158 -96 -272 -143 -384
-157 -874 -205 -1285 -126 -398 77 -785 247 -1062 468 -250 200 -491 503 -641
806 -66 134 -75 156 -52 139 6 -6 34 -27 61 -47z m801 -236 c396 -86 1090
-111 1498 -54 54 7 33 -10 -38 -31 -114 -35 -774 -58 -1006 -35 -220 22 -449
71 -554 120 -35 16 -37 18 -15 19 14 1 66 -8 115 -19z"/>
<path d="M2764 4979 c-416 -30 -914 -221 -1214 -464 -42 -34 -90 -69 -106 -78
-17 -9 -100 -89 -184 -178 -145 -154 -201 -232 -180 -253 5 -5 118 -6 252 -3
197 4 298 12 533 41 160 20 296 39 303 41 6 2 12 14 12 26 0 30 54 188 86 251
55 111 132 216 191 263 170 135 383 256 485 275 56 11 88 33 88 60 0 30 -57
34 -266 19z"/>
<path d="M1030 3963 c-26 -4 -38 -24 -165 -273 -62 -121 -91 -209 -72 -215 7
-2 110 -6 230 -8 l217 -5 0 23 c0 12 -19 46 -42 76 -40 50 -43 57 -42 114 0
75 16 105 99 194 l65 68 -113 12 c-61 7 -121 13 -132 15 -11 1 -31 1 -45 -1z"/>
<path d="M731 3342 c-24 -80 -47 -178 -56 -244 l-6 -46 343 -4 c189 -2 345 -2
347 -1 13 8 -44 275 -70 328 l-14 30 -262 3 -261 2 -21 -68z"/>
<path d="M688 2983 l-48 -4 0 -42 c0 -23 -3 -85 -6 -137 l-7 -95 442 0 c287 0
441 3 441 10 0 6 -24 69 -53 140 l-53 130 -335 1 c-183 0 -355 -1 -381 -3z"/>
<path d="M708 2582 c-90 -3 -86 4 -63 -119 8 -43 15 -90 15 -105 l0 -28 333 0
c300 0 525 10 600 26 37 8 36 44 -4 120 -18 32 -35 70 -38 83 l-7 24 -379 1
c-209 1 -415 0 -457 -2z"/>
<path d="M680 2202 c0 -10 6 -26 13 -35 24 -34 187 5 187 45 0 4 -45 8 -100 8
-90 0 -100 -2 -100 -18z"/>
<path d="M4470 4269 c-215 -103 -450 -155 -820 -183 -239 -18 -382 -47 -356
-73 4 -4 345 -10 757 -12 732 -3 749 -3 749 16 0 25 -42 90 -113 176 -99 120
-114 125 -217 76z"/>
<path d="M3610 3951 c0 -17 35 -51 85 -84 38 -25 52 -41 61 -72 16 -51 17
-158 3 -209 -9 -34 -8 -41 12 -62 51 -54 78 -56 719 -52 323 2 592 7 596 11
18 18 -79 232 -178 394 l-51 83 -623 0 c-358 0 -624 -4 -624 -9z"/>
<path d="M3959 3399 c-11 -7 -12 -12 -2 -26 61 -89 101 -184 117 -285 l7 -36
122 -7 c67 -3 320 -5 562 -3 l440 3 -3 50 c-2 28 -19 109 -38 180 l-36 130
-578 1 c-318 1 -584 -2 -591 -7z"/>
<path d="M4061 2923 c-6 -21 -11 -42 -11 -46 0 -5 -18 -46 -40 -92 -22 -46
-40 -89 -40 -94 0 -8 166 -11 538 -11 295 0 581 -3 635 -7 l97 -6 0 146 0 147
-585 0 -584 0 -10 -37z"/>
<path d="M3809 2513 c-35 -38 -86 -87 -112 -110 -26 -23 -47 -48 -47 -55 0
-11 152 -13 784 -13 431 0 786 2 789 5 3 3 8 57 12 120 l7 115 -684 3 -684 2
-65 -67z"/>
<path d="M4558 2228 c-21 -5 -38 -14 -38 -18 0 -17 56 -25 310 -40 144 -9 249
-25 301 -45 18 -7 39 31 39 70 l0 24 -237 5 c-131 3 -260 7 -288 10 -27 3 -67
0 -87 -6z"/>
<path d="M3665 2222 c-11 -11 -4 -22 13 -22 10 0 66 -25 126 -55 95 -48 115
-55 167 -55 36 0 82 8 117 21 31 12 100 34 152 50 95 28 140 47 140 58 0 7
-708 10 -715 3z"/>
<path d="M1386 3744 c-8 -21 42 -112 75 -137 48 -35 339 -77 339 -48 0 5 -33
13 -73 19 -122 19 -183 47 -254 119 -35 35 -67 63 -72 63 -5 0 -12 -7 -15 -16z"/>
<path d="M1698 3499 c22 -22 173 -70 263 -84 215 -35 800 -29 1026 11 121 21
134 39 23 30 -47 -3 -222 -9 -390 -13 -345 -7 -590 5 -797 40 -73 13 -129 19
-125 16z"/>
<path d="M1630 3375 c0 -13 8 -29 18 -34 33 -18 482 -48 482 -32 0 23 -104 46
-284 61 -71 6 -138 15 -147 21 -10 5 -29 9 -43 9 -21 0 -26 -5 -26 -25z"/>
<path d="M1644 3276 c-9 -24 3 -45 31 -56 47 -18 172 -28 284 -22 108 5 111 5
95 23 -14 15 -32 19 -91 19 -62 0 -228 26 -296 46 -10 3 -20 -1 -23 -10z"/>
<path d="M3660 3199 c-41 -12 -76 -43 -136 -120 -24 -31 -59 -64 -78 -73 -31
-15 -37 -25 -67 -114 -17 -53 -69 -185 -114 -292 -178 -422 -199 -511 -78
-321 31 47 67 99 82 115 30 33 186 140 219 150 12 4 22 12 22 17 0 5 51 60
113 122 61 62 126 137 144 167 35 60 63 154 63 210 0 38 -28 108 -51 127 -21
17 -80 23 -119 12z m61 -139 c16 0 10 -78 -12 -135 -14 -38 -33 -65 -60 -87
-21 -17 -39 -37 -39 -44 0 -40 -211 -202 -218 -169 -13 60 55 215 131 301 64
71 158 146 175 139 8 -3 18 -5 23 -5z"/>
<path d="M1660 3147 c0 -9 15 -24 33 -34 27 -15 63 -19 225 -21 135 -3 192 0
192 7 0 20 -41 29 -180 40 -74 6 -165 14 -202 17 -59 6 -68 5 -68 -9z"/>
<path d="M1700 3034 c0 -11 3 -29 6 -41 6 -23 7 -23 225 -23 130 0 219 4 219
9 0 20 13 18 -321 51 -53 5 -104 12 -113 16 -11 4 -16 1 -16 -12z"/>
<path d="M1730 2910 c0 -6 7 -22 16 -35 l16 -25 200 0 c153 0 199 3 196 12 -6
18 -50 25 -243 43 -203 18 -185 17 -185 5z"/>
<path d="M1770 2788 c0 -8 6 -23 14 -34 13 -17 30 -19 161 -22 148 -4 195 1
195 18 0 14 -27 18 -178 30 -73 6 -147 13 -163 17 -21 4 -29 2 -29 -9z"/>
<path d="M1835 2658 c4 -18 9 -36 12 -40 2 -5 74 -8 159 -8 127 0 154 2 154
14 0 24 -17 29 -156 42 -72 6 -142 15 -154 19 -21 7 -22 5 -15 -27z"/>
<path d="M1885 2529 c4 -13 11 -28 17 -34 11 -12 250 -13 292 -2 55 15 10 32
-102 38 -59 4 -131 10 -161 14 -53 8 -53 8 -46 -16z"/>
<path d="M1945 2411 c-3 -6 2 -24 12 -41 20 -35 21 -35 205 -20 117 9 176 25
147 40 -8 4 -84 10 -169 13 -85 3 -163 9 -172 12 -9 4 -19 2 -23 -4z"/>
<path d="M1985 2280 c-8 -14 17 -50 40 -56 28 -7 280 10 308 21 24 10 21 24
-5 30 -31 6 -339 11 -343 5z"/>
<path d="M2017 2174 c-17 -17 -5 -42 26 -55 51 -22 223 -18 267 5 l35 19 -25
7 c-14 4 -73 10 -130 14 -58 4 -119 9 -135 12 -17 3 -34 2 -38 -2z"/>
<path d="M2037 2073 c-19 -18 -4 -42 36 -59 83 -34 317 -28 304 9 -5 17 -52
27 -182 38 -66 5 -127 12 -136 14 -8 3 -18 2 -22 -2z"/>
<path d="M2015 1950 c-2 -4 1 -21 7 -38 15 -40 60 -59 170 -71 122 -14 434 -3
478 17 34 16 32 16 -120 24 -209 11 -393 33 -468 57 -34 10 -64 16 -67 11z"/>
<path d="M3885 1213 c-16 -2 -58 -8 -93 -14 -35 -5 -148 -20 -251 -33 -181
-23 -231 -35 -231 -56 0 -12 -20 -13 286 5 352 21 622 50 642 70 4 3 -2 13
-12 21 -15 11 -54 14 -165 13 -80 -1 -159 -4 -176 -6z"/>
<path d="M1940 635 c-16 -19 7 -37 66 -51 48 -11 217 -14 904 -13 465 1 872 4
905 8 l60 7 -36 17 c-19 8 -64 21 -100 26 -88 15 -1788 20 -1799 6z"/>
</g>
</svg>
